<svg width="860" height="832" xmlns="http://www.w3.org/2000/svg" font-family="Segoe UI,Arial,sans-serif">
<rect width="860" height="832" fill="#f0f4f8"/>
<rect width="860" height="50" fill="#0053a4"/>
<rect x="14" y="13" width="24" height="24" rx="4" fill="rgba(255,255,255,0.15)"/>
<rect x="17" y="16" width="8" height="8" rx="1.5" fill="#50e6ff" opacity="0.9"/>
<rect x="27" y="16" width="8" height="8" rx="1.5" fill="white" opacity="0.6"/>
<rect x="17" y="26" width="8" height="8" rx="1.5" fill="white" opacity="0.6"/>
<rect x="27" y="26" width="8" height="8" rx="1.5" fill="#50e6ff" opacity="0.9"/>
<text x="46" y="30" fill="white" font-size="15" font-weight="700">Azure Logic Apps</text>
<text x="46" y="44" fill="rgba(255,255,255,0.72)" font-size="11">BSA PO Box Remediation  -  Consumption plan  -  Weekly Monday 6:00 AM</text>

<!-- CARD 1: Recurrence -->
<rect x="40" y="68" width="760" height="60" rx="4" fill="white" stroke="#d0d0d0" stroke-width="1"/>
<rect x="40" y="68" width="6" height="60" rx="2" fill="#5C2D91"/>
<text x="58" y="88" fill="#888" font-size="9" font-weight="700" letter-spacing="0.6">AZURE LOGIC APPS</text>
<text x="58" y="108" fill="#1a1a2e" font-size="13" font-weight="700">Recurrence</text>
<text x="58" y="122" fill="#666" font-size="10">Every week  -  Monday  -  6:00 AM  -  Consumption plan trigger</text>
<line x1="430" y1="128" x2="430" y2="144" stroke="#8a8886" stroke-width="1.5"/>
<polygon points="426,141 430,148 434,141" fill="#8a8886"/>

<!-- CARD 2: Blob Storage -->
<rect x="40" y="148" width="760" height="60" rx="4" fill="white" stroke="#d0d0d0" stroke-width="1"/>
<rect x="40" y="148" width="6" height="60" rx="2" fill="#0089D6"/>
<text x="58" y="168" fill="#888" font-size="9" font-weight="700" letter-spacing="0.6">AZURE BLOB STORAGE</text>
<text x="58" y="188" fill="#1a1a2e" font-size="13" font-weight="700">Read Verafin CSV export</text>
<text x="58" y="202" fill="#666" font-size="10">Container: bsa-exports  -  Blob: verafin_po_box_{date}.csv  -  Trigger on new file</text>
<line x1="430" y1="208" x2="430" y2="224" stroke="#8a8886" stroke-width="1.5"/>
<polygon points="426,221 430,228 434,221" fill="#8a8886"/>

<!-- CARD 3: Azure Function -->
<rect x="40" y="228" width="760" height="60" rx="4" fill="white" stroke="#d0d0d0" stroke-width="1"/>
<rect x="40" y="228" width="6" height="60" rx="2" fill="#E8A800"/>
<text x="58" y="248" fill="#888" font-size="9" font-weight="700" letter-spacing="0.6">AZURE FUNCTIONS</text>
<text x="58" y="268" fill="#1a1a2e" font-size="13" font-weight="700">Parse + filter records</text>
<text x="58" y="282" fill="#666" font-size="10">Parse CSV  -  Filter blank or PO Box addresses  -  Return record array</text>
<line x1="430" y1="288" x2="430" y2="304" stroke="#8a8886" stroke-width="1.5"/>
<polygon points="426,301 430,308 434,301" fill="#8a8886"/>

<!-- FOR EACH CONTAINER (y=308 to y=762, h=454) -->
<rect x="40" y="308" width="780" height="454" rx="4" fill="#f5f8ff" stroke="#107c41" stroke-width="1.5"/>
<rect x="40" y="308" width="6" height="454" rx="2" fill="#107c41"/>
<text x="58" y="328" fill="#107c41" font-size="9" font-weight="700" letter-spacing="0.6">CONTROL</text>
<text x="58" y="345" fill="#1a1a2e" font-size="12" font-weight="700">For Each  -  process each record</text>

<!-- INNER: Bankway HTTP + Key Vault -->
<rect x="60" y="356" width="720" height="56" rx="4" fill="white" stroke="#d0d0d0" stroke-width="1"/>
<rect x="60" y="356" width="5" height="56" rx="2" fill="#0891b2"/>
<text x="76" y="376" fill="#888" font-size="9" font-weight="700" letter-spacing="0.6">HTTP ACTION + AZURE KEY VAULT</text>
<text x="76" y="394" fill="#1a1a2e" font-size="12" font-weight="700">Bankway - CIF address lookup</text>
<text x="76" y="407" fill="#666" font-size="10">GET /cif/{AccountNumber}  -  API key retrieved from Key Vault at runtime</text>
<line x1="420" y1="412" x2="420" y2="428" stroke="#8a8886" stroke-width="1.5"/>
<polygon points="416,425 420,432 424,425" fill="#8a8886"/>

<!-- INNER: Condition -->
<rect x="60" y="432" width="720" height="56" rx="4" fill="white" stroke="#d0d0d0" stroke-width="1"/>
<rect x="60" y="432" width="5" height="56" rx="2" fill="#d97706"/>
<text x="76" y="452" fill="#888" font-size="9" font-weight="700" letter-spacing="0.6">CONDITION</text>
<text x="76" y="470" fill="#1a1a2e" font-size="12" font-weight="700">Physical address found in Bankway?</text>
<text x="76" y="483" fill="#666" font-size="10">physicalAddress is not empty</text>

<!-- BRANCH connectors -->
<line x1="420" y1="488" x2="420" y2="504" stroke="#8a8886" stroke-width="1.5"/>
<line x1="230" y1="504" x2="590" y2="504" stroke="#8a8886" stroke-width="1.5"/>
<line x1="230" y1="504" x2="230" y2="518" stroke="#22c55e" stroke-width="1.5"/>
<polygon points="226,515 230,522 234,515" fill="#22c55e"/>
<line x1="590" y1="504" x2="590" y2="518" stroke="#ef4444" stroke-width="1.5"/>
<polygon points="586,515 590,522 594,515" fill="#ef4444"/>
<rect x="182" y="495" width="96" height="16" rx="3" fill="#dcfce7"/>
<text x="230" y="507" fill="#166534" font-size="10" font-weight="700" text-anchor="middle">YES - address found</text>
<rect x="542" y="495" width="96" height="16" rx="3" fill="#fee2e2"/>
<text x="590" y="507" fill="#a80000" font-size="10" font-weight="700" text-anchor="middle">NO - keep searching</text>

<!-- YES BRANCH -->
<rect x="68" y="522" width="318" height="54" rx="4" fill="white" stroke="#d0d0d0" stroke-width="1"/>
<rect x="68" y="522" width="5" height="54" rx="2" fill="#16a34a"/>
<text x="84" y="541" fill="#888" font-size="9" font-weight="700" letter-spacing="0.6">HTTP ACTION + AZURE SQL</text>
<text x="84" y="559" fill="#1a1a2e" font-size="12" font-weight="700">Submit Verafin note + write audit record</text>
<text x="84" y="571" fill="#666" font-size="10">POST note  -  INSERT to BSA_Audit_Log table  -  Status: Resolved</text>
<line x1="227" y1="576" x2="227" y2="590" stroke="#8a8886" stroke-width="1.5"/>
<polygon points="223,587 227,594 231,587" fill="#8a8886"/>
<rect x="68" y="594" width="318" height="54" rx="4" fill="white" stroke="#d0d0d0" stroke-width="1"/>
<rect x="68" y="594" width="5" height="54" rx="2" fill="#0089D6"/>
<text x="84" y="613" fill="#888" font-size="9" font-weight="700" letter-spacing="0.6">AZURE SQL</text>
<text x="84" y="631" fill="#1a1a2e" font-size="12" font-weight="700">Write audit log row</text>
<text x="84" y="643" fill="#666" font-size="10">Timestamp  -  Source  -  Confidence  -  Action taken</text>

<!-- NO BRANCH -->
<rect x="394" y="522" width="386" height="54" rx="4" fill="white" stroke="#d0d0d0" stroke-width="1"/>
<rect x="394" y="522" width="5" height="54" rx="2" fill="#0891b2"/>
<text x="410" y="541" fill="#888" font-size="9" font-weight="700" letter-spacing="0.6">HTTP ACTION x 2</text>
<text x="410" y="559" fill="#1a1a2e" font-size="12" font-weight="700">actDataScout + ARCourts search</text>
<text x="410" y="571" fill="#666" font-size="10">Search by customer name and date of birth</text>
<line x1="587" y1="576" x2="587" y2="590" stroke="#8a8886" stroke-width="1.5"/>
<polygon points="583,587 587,594 591,587" fill="#8a8886"/>
<rect x="394" y="594" width="386" height="54" rx="4" fill="white" stroke="#d0d0d0" stroke-width="1"/>
<rect x="394" y="594" width="5" height="54" rx="2" fill="#0ea5e9"/>
<text x="410" y="613" fill="#888" font-size="9" font-weight="700" letter-spacing="0.6">AZURE AI FOUNDRY</text>
<text x="410" y="631" fill="#1a1a2e" font-size="12" font-weight="700">AI model - evaluate match confidence</text>
<text x="410" y="643" fill="#666" font-size="10">Claude via Azure Marketplace  -  Model Catalog: Claude, GPT-4o, Llama, Phi  -  swap without code changes</text>
<line x1="587" y1="648" x2="587" y2="662" stroke="#8a8886" stroke-width="1.5"/>
<polygon points="583,659 587,666 591,659" fill="#8a8886"/>
<text x="587" y="682" fill="#555" font-size="10" font-weight="700" text-anchor="middle">SWITCH  -  Route by confidence level</text>
<rect x="400" y="688" width="116" height="66" rx="4" fill="#dcfce7" stroke="#86efac" stroke-width="1"/>
<text x="458" y="708" fill="#166534" font-size="11" font-weight="700" text-anchor="middle">HIGH</text>
<text x="458" y="724" fill="#166534" font-size="10" text-anchor="middle">Auto-resolve</text>
<text x="458" y="738" fill="#166534" font-size="10" text-anchor="middle">Submit + SQL log</text>
<rect x="524" y="688" width="116" height="66" rx="4" fill="#fef9c3" stroke="#fde047" stroke-width="1"/>
<text x="582" y="708" fill="#854d0e" font-size="11" font-weight="700" text-anchor="middle">LOW</text>
<text x="582" y="724" fill="#854d0e" font-size="10" text-anchor="middle">Teams message</text>
<text x="582" y="738" fill="#854d0e" font-size="10" text-anchor="middle">analyst channel</text>
<rect x="648" y="688" width="116" height="66" rx="4" fill="#fee2e2" stroke="#fca5a5" stroke-width="1"/>
<text x="706" y="708" fill="#991b1b" font-size="11" font-weight="700" text-anchor="middle">NONE</text>
<text x="706" y="724" fill="#991b1b" font-size="10" text-anchor="middle">Email BSA</text>
<text x="706" y="738" fill="#991b1b" font-size="10" text-anchor="middle">Officer</text>

<!-- AFTER CONTAINER -->
<line x1="430" y1="762" x2="430" y2="776" stroke="#8a8886" stroke-width="1.5"/>
<polygon points="426,773 430,780 434,773" fill="#8a8886"/>

<!-- CARD 5: Office 365 email -->
<rect x="40" y="780" width="760" height="34" rx="4" fill="white" stroke="#d0d0d0" stroke-width="1"/>
<rect x="40" y="780" width="6" height="34" rx="2" fill="#0078d4"/>
<text x="58" y="796" fill="#888" font-size="9" font-weight="700" letter-spacing="0.6">OFFICE 365</text>
<text x="58" y="808" fill="#1a1a2e" font-size="12" font-weight="700">Send daily summary to BSA Officer  -  resolved / exceptions / no-result counts</text>
</svg>