<svg width="860" height="832" xmlns="http://www.w3.org/2000/svg" font-family="Segoe UI,Arial,sans-serif">
<rect width="860" height="832" fill="#f3f2f1"/>
<rect width="860" height="50" fill="#742774"/>
<rect x="14" y="12" width="26" height="26" rx="5" fill="rgba(255,255,255,0.15)"/>
<rect x="18" y="16" width="8" height="8" rx="1.5" fill="white" opacity="0.9"/>
<rect x="28" y="16" width="8" height="8" rx="1.5" fill="#0078d4" opacity="0.9"/>
<rect x="18" y="26" width="8" height="8" rx="1.5" fill="#0078d4" opacity="0.9"/>
<rect x="28" y="26" width="8" height="8" rx="1.5" fill="white" opacity="0.9"/>
<text x="48" y="30" fill="white" font-size="15" font-weight="700">Power Automate</text>
<text x="48" y="44" fill="rgba(255,255,255,0.72)" font-size="11">BSA PO Box Remediation  -  Automated cloud flow  -  Weekly Monday 6:00 AM</text>

<!-- CARD 1: Recurrence -->
<rect x="40" y="68" width="760" height="60" rx="4" fill="white" stroke="#d0d0d0" stroke-width="1"/>
<rect x="40" y="68" width="6" height="60" rx="2" fill="#742774"/>
<text x="58" y="88" fill="#888" font-size="9" font-weight="700" letter-spacing="0.6">SCHEDULE</text>
<text x="58" y="108" fill="#1a1a2e" font-size="13" font-weight="700">Recurrence</text>
<text x="58" y="122" fill="#666" font-size="10">Every week  -  Monday  -  6:00 AM</text>
<line x1="430" y1="128" x2="430" y2="144" stroke="#8a8886" stroke-width="1.5"/>
<polygon points="426,141 430,148 434,141" fill="#8a8886"/>

<!-- CARD 2: SharePoint -->
<rect x="40" y="148" width="760" height="60" rx="4" fill="white" stroke="#d0d0d0" stroke-width="1"/>
<rect x="40" y="148" width="6" height="60" rx="2" fill="#0078d4"/>
<text x="58" y="168" fill="#888" font-size="9" font-weight="700" letter-spacing="0.6">SHAREPOINT</text>
<text x="58" y="188" fill="#1a1a2e" font-size="13" font-weight="700">Get items - Verafin PO Box export</text>
<text x="58" y="202" fill="#666" font-size="10">List: Verafin_PO_Box_Export  -  Filter: Status eq Pending</text>
<line x1="430" y1="208" x2="430" y2="224" stroke="#8a8886" stroke-width="1.5"/>
<polygon points="426,221 430,228 434,221" fill="#8a8886"/>

<!-- APPLY TO EACH CONTAINER (y=228 to y=690, h=462) -->
<rect x="40" y="228" width="780" height="462" rx="4" fill="#f9fdf9" stroke="#107c41" stroke-width="1.5"/>
<rect x="40" y="228" width="6" height="462" rx="2" fill="#107c41"/>
<text x="58" y="248" fill="#107c41" font-size="9" font-weight="700" letter-spacing="0.6">CONTROL</text>
<text x="58" y="265" fill="#1a1a2e" font-size="12" font-weight="700">Apply to each  -  process each record</text>

<!-- INNER: Bankway CIF (y=276) -->
<rect x="60" y="276" width="720" height="56" rx="4" fill="white" stroke="#d0d0d0" stroke-width="1"/>
<rect x="60" y="276" width="5" height="56" rx="2" fill="#0891b2"/>
<text x="76" y="296" fill="#888" font-size="9" font-weight="700" letter-spacing="0.6">HTTP</text>
<text x="76" y="314" fill="#1a1a2e" font-size="12" font-weight="700">Bankway - CIF address lookup</text>
<text x="76" y="327" fill="#666" font-size="10">GET /cif/{AccountNumber}  -  Auth: x-api-key header</text>
<line x1="420" y1="332" x2="420" y2="348" stroke="#8a8886" stroke-width="1.5"/>
<polygon points="416,345 420,352 424,345" fill="#8a8886"/>

<!-- INNER: Condition (y=352) -->
<rect x="60" y="352" width="720" height="56" rx="4" fill="white" stroke="#d0d0d0" stroke-width="1"/>
<rect x="60" y="352" width="5" height="56" rx="2" fill="#d97706"/>
<text x="76" y="372" fill="#888" font-size="9" font-weight="700" letter-spacing="0.6">CONDITION</text>
<text x="76" y="390" fill="#1a1a2e" font-size="12" font-weight="700">Physical address found in Bankway?</text>
<text x="76" y="403" fill="#666" font-size="10">physicalAddress is not empty</text>

<!-- BRANCH: from condition (bottom=408) -->
<line x1="420" y1="408" x2="420" y2="424" stroke="#8a8886" stroke-width="1.5"/>
<line x1="230" y1="424" x2="590" y2="424" stroke="#8a8886" stroke-width="1.5"/>
<line x1="230" y1="424" x2="230" y2="438" stroke="#22c55e" stroke-width="1.5"/>
<polygon points="226,435 230,442 234,435" fill="#22c55e"/>
<line x1="590" y1="424" x2="590" y2="438" stroke="#ef4444" stroke-width="1.5"/>
<polygon points="586,435 590,442 594,435" fill="#ef4444"/>
<rect x="182" y="415" width="96" height="16" rx="3" fill="#dcfce7"/>
<text x="230" y="427" fill="#166534" font-size="10" font-weight="700" text-anchor="middle">YES - address found</text>
<rect x="542" y="415" width="96" height="16" rx="3" fill="#fee2e2"/>
<text x="590" y="427" fill="#a80000" font-size="10" font-weight="700" text-anchor="middle">NO - keep searching</text>

<!-- YES BRANCH (x=68, w=318, center=227) -->
<rect x="68" y="442" width="318" height="54" rx="4" fill="white" stroke="#d0d0d0" stroke-width="1"/>
<rect x="68" y="442" width="5" height="54" rx="2" fill="#16a34a"/>
<text x="84" y="461" fill="#888" font-size="9" font-weight="700" letter-spacing="0.6">HTTP + SHAREPOINT</text>
<text x="84" y="479" fill="#1a1a2e" font-size="12" font-weight="700">Submit Verafin note + log result</text>
<text x="84" y="491" fill="#666" font-size="10">Auto-note  -  source: Bankway  -  Status: Resolved</text>
<line x1="227" y1="496" x2="227" y2="510" stroke="#8a8886" stroke-width="1.5"/>
<polygon points="223,507 227,514 231,507" fill="#8a8886"/>
<rect x="68" y="514" width="318" height="54" rx="4" fill="white" stroke="#d0d0d0" stroke-width="1"/>
<rect x="68" y="514" width="5" height="54" rx="2" fill="#0078d4"/>
<text x="84" y="533" fill="#888" font-size="9" font-weight="700" letter-spacing="0.6">SHAREPOINT</text>
<text x="84" y="551" fill="#1a1a2e" font-size="12" font-weight="700">Write audit log row</text>
<text x="84" y="563" fill="#666" font-size="10">Status  -  Timestamp  -  Source  -  Analyst</text>

<!-- NO BRANCH (x=394, w=386, center=587) -->
<rect x="394" y="442" width="386" height="54" rx="4" fill="white" stroke="#d0d0d0" stroke-width="1"/>
<rect x="394" y="442" width="5" height="54" rx="2" fill="#0891b2"/>
<text x="410" y="461" fill="#888" font-size="9" font-weight="700" letter-spacing="0.6">HTTP x 2</text>
<text x="410" y="479" fill="#1a1a2e" font-size="12" font-weight="700">actDataScout + ARCourts search</text>
<text x="410" y="491" fill="#666" font-size="10">Search by customer name and date of birth</text>
<line x1="587" y1="496" x2="587" y2="510" stroke="#8a8886" stroke-width="1.5"/>
<polygon points="583,507 587,514 591,507" fill="#8a8886"/>
<rect x="394" y="514" width="386" height="54" rx="4" fill="white" stroke="#d0d0d0" stroke-width="1"/>
<rect x="394" y="514" width="5" height="54" rx="2" fill="#0ea5e9"/>
<text x="410" y="533" fill="#888" font-size="9" font-weight="700" letter-spacing="0.6">AZURE AI FOUNDRY</text>
<text x="410" y="551" fill="#1a1a2e" font-size="12" font-weight="700">AI model - evaluate match confidence</text>
<text x="410" y="563" fill="#666" font-size="10">Model Catalog: Claude, GPT-4o, Llama, Phi  -  swap without code changes</text>
<line x1="587" y1="568" x2="587" y2="582" stroke="#8a8886" stroke-width="1.5"/>
<polygon points="583,579 587,586 591,579" fill="#8a8886"/>
<text x="587" y="602" fill="#555" font-size="10" font-weight="700" text-anchor="middle">SWITCH  -  Route by confidence level</text>
<rect x="400" y="608" width="116" height="74" rx="4" fill="#dcfce7" stroke="#86efac" stroke-width="1"/>
<text x="458" y="628" fill="#166534" font-size="11" font-weight="700" text-anchor="middle">HIGH</text>
<text x="458" y="644" fill="#166534" font-size="10" text-anchor="middle">Auto-resolve</text>
<text x="458" y="658" fill="#166534" font-size="10" text-anchor="middle">Submit note</text>
<text x="458" y="672" fill="#166534" font-size="10" text-anchor="middle">Update CIF</text>
<rect x="524" y="608" width="116" height="74" rx="4" fill="#fef9c3" stroke="#fde047" stroke-width="1"/>
<text x="582" y="628" fill="#854d0e" font-size="11" font-weight="700" text-anchor="middle">LOW</text>
<text x="582" y="644" fill="#854d0e" font-size="10" text-anchor="middle">Post to Teams</text>
<text x="582" y="658" fill="#854d0e" font-size="10" text-anchor="middle">BSA analyst</text>
<text x="582" y="672" fill="#854d0e" font-size="10" text-anchor="middle">channel</text>
<rect x="648" y="608" width="116" height="74" rx="4" fill="#fee2e2" stroke="#fca5a5" stroke-width="1"/>
<text x="706" y="628" fill="#991b1b" font-size="11" font-weight="700" text-anchor="middle">NONE</text>
<text x="706" y="644" fill="#991b1b" font-size="10" text-anchor="middle">Outlook email</text>
<text x="706" y="658" fill="#991b1b" font-size="10" text-anchor="middle">to BSA Officer</text>
<text x="706" y="672" fill="#991b1b" font-size="10" text-anchor="middle">for review</text>

<!-- AFTER CONTAINER -->
<line x1="430" y1="690" x2="430" y2="704" stroke="#8a8886" stroke-width="1.5"/>
<polygon points="426,701 430,708 434,701" fill="#8a8886"/>

<!-- CARD 4: Outlook email -->
<rect x="40" y="708" width="760" height="60" rx="4" fill="white" stroke="#d0d0d0" stroke-width="1"/>
<rect x="40" y="708" width="6" height="60" rx="2" fill="#0078d4"/>
<text x="58" y="728" fill="#888" font-size="9" font-weight="700" letter-spacing="0.6">OUTLOOK</text>
<text x="58" y="747" fill="#1a1a2e" font-size="13" font-weight="700">Send daily summary to BSA Officer</text>
<text x="58" y="761" fill="#666" font-size="10">To: BSA Officer  -  Body: resolved / exceptions / no-result counts</text>

<!-- LEGEND -->
<rect x="40" y="784" width="760" height="36" rx="4" fill="#fff8e1" stroke="#fde68a" stroke-width="1"/>
<text x="58" y="799" fill="#92400e" font-size="10" font-weight="700">Human touchpoints (3 only):</text>
<rect x="58" y="808" width="7" height="7" rx="1" fill="#742774"/>
<text x="70" y="815" fill="#555" font-size="9">BSA Officer approves SOP (once)</text>
<rect x="250" y="808" width="7" height="7" rx="1" fill="#d97706"/>
<text x="262" y="815" fill="#555" font-size="9">Analyst works low-confidence exceptions</text>
<rect x="490" y="808" width="7" height="7" rx="1" fill="#0078d4"/>
<text x="502" y="815" fill="#555" font-size="9">BSA Officer reviews daily summary (~5 min)</text>
</svg>